<svg width="8" height="16" viewBox="0 0 8 16" fill="none" xmlns="http://www.w3.org/2000/svg">
<path d="M6.14649 4.11781L6.14649 11.5583C6.14649 12.9882 4.98836 14.1463 3.55849 14.1463C2.12863 14.1463 0.970498 12.9882 0.970498 11.5583L0.970498 3.47081C0.970498 2.57795 1.69514 1.85331 2.588 1.85331C3.48085 1.85331 4.20549 2.57795 4.20549 3.47081L4.20549 10.2643C4.20549 10.6201 3.91434 10.9113 3.55849 10.9113C3.20264 10.9113 2.9115 10.6201 2.9115 10.2643L2.9115 4.11781H1.941L1.941 10.2643C1.941 11.1572 2.66564 11.8818 3.55849 11.8818C4.45135 11.8818 5.17599 11.1572 5.17599 10.2643L5.17599 3.47081C5.17599 2.04094 4.01786 0.882813 2.588 0.882813C1.15813 0.882813 0 2.04094 0 3.47081L0 11.5583C0 13.5252 1.59162 15.1168 3.55849 15.1168C5.52537 15.1168 7.11699 13.5252 7.11699 11.5583L7.11699 4.11781H6.14649Z" fill="white"/>
</svg>
